<svg id="Layer_1" enable-background="new 0 0 128 128" height="512" viewBox="0 0 128 128" width="512" xmlns="http://www.w3.org/2000/svg"><path d="m118.985 93.583c.059-.403.1-.813.1-1.232v-59.574c0-4.681-3.808-8.489-8.489-8.489h-89.192c-4.681 0-8.489 3.808-8.489 8.489v59.574c0 .42.041.829.1 1.232-3.345.62-5.887 3.555-5.887 7.076v6.053c0 .552.448 1 1 1h41.192 8.613 65.94c.552 0 1-.448 1-1v-6.053c0-3.521-2.543-6.455-5.888-7.076z" fill="#e6e7e8"/><path d="m10.33 90.458h103.34c.14 0 .277.012.415.021v-61.702c0-4.136-3.353-7.489-7.489-7.489h-89.192c-4.136 0-7.489 3.353-7.489 7.489v61.702c.138-.01.275-.021.415-.021z" fill="#fff"/><path d="m106.596 24.287h-89.192c-4.136 0-7.489 3.353-7.489 7.489v58.702c.138-.009.275-.021.415-.021h103.34c.14 0 .277.012.415.021v-58.701c0-4.137-3.353-7.49-7.489-7.49z" fill="#6dc9f7"/><path d="m70.327 33.755h-16.888c-1.726 0-3.125 1.399-3.125 3.125v43.367c0 1.726 1.399 3.125 3.125 3.125h16.887c1.726 0 3.125-1.399 3.125-3.125v-43.367c.001-1.726-1.398-3.125-3.124-3.125z" fill="#d4fbff"/><path d="m61.883 46.062c2.372 0 4.226.846 5.562 2.539 1.592 2.004 2.389 5.328 2.389 9.971 0 4.632-.802 7.961-2.405 9.988-1.325 1.67-3.173 2.505-5.545 2.505-2.383 0-4.304-.916-5.762-2.748-1.459-1.832-2.188-5.097-2.188-9.795 0-4.61.802-7.928 2.405-9.955 1.324-1.669 3.172-2.505 5.544-2.505zm0 3.892c-.568 0-1.075.181-1.52.543s-.791 1.01-1.036 1.946c-.323 1.214-.484 3.257-.484 6.129 0 2.873.145 4.847.435 5.921.289 1.075.654 1.79 1.094 2.146s.944.534 1.512.534 1.074-.181 1.52-.542.791-1.011 1.036-1.946c.323-1.203.484-3.24.484-6.113s-.145-4.846-.434-5.921c-.29-1.074-.654-1.792-1.094-2.154s-.945-.543-1.513-.543z" fill="#fa759e"/><path d="m101.797 33.755h-16.887c-1.726 0-3.125 1.399-3.125 3.125v43.367c0 1.726 1.399 3.125 3.125 3.125h16.887c1.726 0 3.125-1.399 3.125-3.125v-43.367c0-1.726-1.399-3.125-3.125-3.125z" fill="#d4fbff"/><path d="m90.813 33.755c-.202.183-.395.37-.618.544-1.436 1.119-2.767 1.879-3.992 2.28v4.259c2.327-.768 4.348-1.954 6.063-3.558v17.688h4.693v-21.213z" fill="#fa759e"/><path d="m93.034 68.012c-2.205 0-4.042.563-5.511 1.687-1.47 1.125-2.344 2.979-2.623 5.562l4.677.468c.089-1.37.423-2.349 1.002-2.939s1.358-.885 2.338-.885c.991 0 1.768.281 2.33.844.562.562.843 1.367.843 2.413 0 .947-.323 1.904-.969 2.873-.479.701-1.776 2.038-3.892 4.008-.499.463-.956.903-1.393 1.331h6.333c.992-.945 1.717-1.704 2.158-2.267.857-1.091 1.483-2.135 1.879-3.131.395-.997.593-2.046.593-3.148 0-1.938-.69-3.558-2.071-4.86-1.379-1.304-3.277-1.956-5.694-1.956z" fill="#fa759e"/><path d="m39.09 33.755h-16.887c-1.726 0-3.125 1.399-3.125 3.125v43.367c0 1.726 1.399 3.125 3.125 3.125h16.887c1.726 0 3.125-1.399 3.125-3.125v-43.367c.001-1.726-1.399-3.125-3.125-3.125z" fill="#d4fbff"/><path d="m30.647 46.062c2.372 0 4.226.846 5.562 2.539 1.592 2.004 2.389 5.328 2.389 9.971 0 4.632-.802 7.961-2.405 9.988-1.325 1.67-3.173 2.505-5.545 2.505-2.383 0-4.304-.916-5.762-2.748-1.459-1.832-2.188-5.097-2.188-9.795 0-4.61.802-7.928 2.405-9.955 1.323-1.669 3.171-2.505 5.544-2.505zm0 3.892c-.568 0-1.075.181-1.52.543s-.791 1.01-1.036 1.946c-.323 1.214-.484 3.257-.484 6.129 0 2.873.145 4.847.435 5.921.289 1.075.654 1.79 1.094 2.146s.944.534 1.512.534 1.074-.181 1.52-.542c.445-.362.791-1.011 1.036-1.946.323-1.203.484-3.24.484-6.113s-.145-4.846-.434-5.921c-.29-1.074-.654-1.792-1.094-2.154-.442-.362-.946-.543-1.513-.543z" fill="#fa759e"/><path d="m113.67 90.458h-103.34c-3.425 0-6.202 2.777-6.202 6.202v6.053h115.745v-6.053c-.001-3.426-2.777-6.202-6.203-6.202z" fill="#fa759e"/><g fill="#3a2c60"><path d="m61.883 72.065c2.681 0 4.81-.97 6.329-2.885 1.764-2.229 2.621-5.699 2.621-10.608 0-4.921-.853-8.386-2.604-10.591-1.529-1.937-3.665-2.919-6.347-2.919-2.681 0-4.81.97-6.33 2.885-1.764 2.229-2.621 5.688-2.621 10.575 0 4.979.787 8.386 2.406 10.418 1.652 2.074 3.854 3.125 6.546 3.125zm-4.762-22.875c1.136-1.431 2.693-2.127 4.762-2.127 2.068 0 3.63.706 4.778 2.161 1.441 1.814 2.172 4.959 2.172 9.349 0 4.38-.737 7.531-2.188 9.366-1.136 1.431-2.693 2.127-4.762 2.127-2.081 0-3.71-.775-4.98-2.371-1.307-1.641-1.97-4.727-1.97-9.172 0-4.357.736-7.498 2.188-9.333z"/><path d="m59.742 67.417c.62.502 1.34.757 2.141.757s1.524-.258 2.15-.767c.621-.503 1.069-1.311 1.371-2.462.349-1.3.519-3.385.519-6.373 0-2.987-.153-5.009-.469-6.182-.349-1.292-.815-2.165-1.424-2.666-1.241-1.021-3.043-1.023-4.297-.003-.622.504-1.07 1.312-1.372 2.464-.349 1.309-.518 3.398-.518 6.387 0 2.99.153 5.012.469 6.181.348 1.295.816 2.167 1.43 2.664zm.552-14.721c.247-.944.544-1.297.699-1.423.268-.217.551-.319.89-.319.336 0 .614.1.876.315.124.102.446.466.764 1.642.183.678.4 2.21.4 5.661 0 2.771-.151 4.741-.452 5.86-.248.945-.544 1.297-.699 1.423-.536.436-1.248.431-1.771.007-.123-.1-.442-.458-.758-1.63-.265-.983-.4-2.887-.4-5.66s.152-4.749.451-5.876z"/><path d="m28.505 67.417c.62.502 1.34.757 2.141.757s1.524-.258 2.15-.767c.621-.503 1.069-1.311 1.371-2.462.349-1.3.519-3.385.519-6.373 0-2.987-.153-5.009-.469-6.182-.349-1.292-.815-2.165-1.424-2.666-1.241-1.021-3.043-1.023-4.297-.003-.622.504-1.07 1.312-1.372 2.464-.349 1.309-.518 3.398-.518 6.387 0 2.99.153 5.012.469 6.181.349 1.295.817 2.167 1.43 2.664zm.553-14.721c.247-.944.544-1.297.699-1.423.268-.217.551-.319.89-.319.336 0 .614.1.876.315.124.102.446.466.764 1.642.183.678.4 2.21.4 5.661 0 2.771-.151 4.741-.452 5.86-.248.945-.544 1.297-.699 1.423-.536.436-1.248.431-1.771.007-.123-.1-.442-.458-.758-1.63-.265-.983-.4-2.887-.4-5.66s.151-4.749.451-5.876z"/><path d="m30.647 72.065c2.681 0 4.81-.97 6.329-2.885 1.764-2.229 2.621-5.699 2.621-10.608 0-4.921-.853-8.386-2.604-10.591-1.529-1.937-3.665-2.919-6.347-2.919-2.681 0-4.81.97-6.33 2.885-1.764 2.229-2.621 5.688-2.621 10.575 0 4.979.787 8.386 2.406 10.418 1.651 2.074 3.854 3.125 6.546 3.125zm-4.763-22.875c1.136-1.431 2.693-2.127 4.762-2.127 2.068 0 3.63.706 4.778 2.161 1.441 1.814 2.172 4.959 2.172 9.349 0 4.38-.737 7.531-2.188 9.366-1.136 1.431-2.693 2.127-4.762 2.127-2.081 0-3.71-.775-4.98-2.371-1.307-1.641-1.97-4.727-1.97-9.172 0-4.357.737-7.498 2.188-9.333z"/><path d="m53.439 84.373h16.888c2.274 0 4.125-1.851 4.125-4.125v-43.368c0-2.274-1.851-4.125-4.125-4.125h-16.888c-2.274 0-4.125 1.851-4.125 4.125v43.368c0 2.275 1.851 4.125 4.125 4.125zm-2.125-47.493c0-1.172.953-2.125 2.125-2.125h16.888c1.172 0 2.125.953 2.125 2.125v43.368c0 1.172-.953 2.125-2.125 2.125h-16.888c-1.172 0-2.125-.954-2.125-2.125z"/><path d="m84.91 84.373h16.887c2.275 0 4.125-1.851 4.125-4.125v-43.368c0-2.274-1.851-4.125-4.125-4.125h-16.887c-2.275 0-4.125 1.851-4.125 4.125v43.368c-.001 2.275 1.85 4.125 4.125 4.125zm11.045-12.332c-.754-.754-1.776-1.137-3.037-1.137-1.253 0-2.28.398-3.052 1.185-.589.601-.975 1.439-1.167 2.547l-2.656-.266c.339-1.772 1.04-3.074 2.088-3.876 1.285-.983 2.935-1.481 4.904-1.481 2.171 0 3.81.55 5.009 1.681 1.183 1.116 1.757 2.468 1.757 4.133 0 .97-.176 1.905-.522 2.78-.358.902-.942 1.872-1.736 2.882-.364.463-.959 1.096-1.773 1.884h-3.429c1.934-1.818 3.116-3.056 3.614-3.785.754-1.132 1.137-2.285 1.137-3.428-.001-1.316-.383-2.365-1.137-3.119zm-3.29-35.678c-.364-.158-.789-.085-1.081.187-1.271 1.188-2.739 2.141-4.38 2.842v-2.118c1.135-.47 2.344-1.203 3.606-2.187.139-.108.267-.22.392-.333h4.758v19.213h-2.693v-16.686c0-.399-.237-.759-.602-.918zm-9.881.517c0-1.172.954-2.125 2.125-2.125h2.835c-.649.383-1.271.684-1.852.875-.411.134-.689.518-.689.95v4.259c0 .321.154.623.414.811.261.188.595.239.899.139 1.735-.573 3.326-1.376 4.75-2.396v15.577c0 .552.448 1 1 1h4.693c.552 0 1-.448 1-1v-20.215h3.837c1.172 0 2.125.953 2.125 2.125v43.368c0 1.172-.954 2.125-2.125 2.125h-3.234c.212-.235.4-.453.553-.649.913-1.162 1.593-2.299 2.022-3.38.44-1.11.663-2.293.663-3.517 0-2.214-.802-4.094-2.385-5.588-1.566-1.478-3.713-2.227-6.382-2.227-2.418 0-4.478.637-6.119 1.893-1.689 1.292-2.701 3.395-3.009 6.249-.029.265.05.53.218.737s.412.338.677.365l4.677.468c.269.028.539-.057.746-.232s.334-.427.352-.698c.071-1.102.319-1.898.717-2.304.387-.395.918-.586 1.625-.586.721 0 1.252.18 1.623.551.37.371.55.928.55 1.706 0 .741-.27 1.521-.794 2.309-.3.439-1.194 1.462-3.746 3.839-.397.368-.763.719-1.118 1.064h-4.522c-1.172 0-2.125-.954-2.125-2.125v-43.368z"/><path d="m22.203 84.373h16.887c2.274 0 4.125-1.851 4.125-4.125v-43.368c0-2.274-1.851-4.125-4.125-4.125h-16.887c-2.274 0-4.125 1.851-4.125 4.125v43.368c0 2.275 1.85 4.125 4.125 4.125zm-2.125-47.493c0-1.172.953-2.125 2.125-2.125h16.887c1.172 0 2.125.953 2.125 2.125v43.368c0 1.172-.953 2.125-2.125 2.125h-16.887c-1.172 0-2.125-.954-2.125-2.125z"/><path d="m53.933 101.713h-8.614c-.552 0-1 .448-1 1s.448 1 1 1h8.614c.552 0 1-.448 1-1s-.448-1-1-1z"/><path d="m115.085 89.599v-60.823c0-4.681-3.808-8.489-8.489-8.489h-89.192c-4.681 0-8.489 3.808-8.489 8.489v60.822c-3.296.659-5.788 3.574-5.788 7.061v6.053c0 .552.448 1 1 1h36.469c.552 0 1-.448 1-1s-.448-1-1-1h-35.469v-5.052c0-2.869 2.333-5.202 5.202-5.202h103.34c2.869 0 5.202 2.333 5.202 5.202v5.053h-60.424c-.552 0-1 .448-1 1s.448 1 1 1h61.425c.552 0 1-.448 1-1v-6.053c0-3.487-2.491-6.402-5.787-7.061zm-97.681-67.312h89.191c3.578 0 6.489 2.911 6.489 6.489v60.681h-102.169v-60.681c0-3.578 2.911-6.489 6.489-6.489z"/></g></svg>