<svg height="464pt" viewBox="0 -28 464.00284 464" width="464pt" xmlns="http://www.w3.org/2000/svg"><path d="m384 155.222656c0-68-85.960938-115.285156-192-115.285156s-192 47.285156-192 115.285156c0 27.722656 15.894531 56.136719 40 76.714844v176h304v-176c24.105469-20.578125 40-48.992188 40-76.714844zm0 0" fill="#b5554e"/><path d="m463.007812 148.457031c10.734376-67.144531-66.679687-127.417969-171.390624-144.160156-104.714844-16.746094-197.058594 16.375-207.792969 83.519531-4.375 27.375 5.695312 54.886719 26.246093 79.007813l-30.070312 177.113281 304 48 29.425781-176.601562c27.046875-16.511719 45.199219-39.503907 49.582031-66.878907zm0 0" fill="#efa66a"/><path d="m308 299.9375c0 8.835938-7.164062 16-16 16s-16-7.164062-16-16 7.164062-16 16-16 16 7.164062 16 16zm0 0" fill="#f4f4e6"/><path d="m200 239.9375c0 8.835938-7.164062 16-16 16s-16-7.164062-16-16 7.164062-16 16-16 16 7.164062 16 16zm0 0" fill="#f4f4e6"/><path d="m315.136719 139.632812c0 8.835938-7.164063 16-16 16-8.835938 0-16-7.164062-16-16 0-8.835937 7.164062-16 16-16 8.835937 0 16 7.164063 16 16zm0 0" fill="#f4f4e6"/><g fill="#b5554e"><path d="m192 119.9375c-2.121094 0-4.15625-.84375-5.65625-2.34375l-16-16c-3.03125-3.140625-2.988281-8.128906.097656-11.214844 3.085938-3.085937 8.074219-3.128906 11.214844-.097656l16 16c2.285156 2.289062 2.972656 5.726562 1.734375 8.714844-1.238281 2.992187-4.15625 4.941406-7.390625 4.941406zm0 0"/><path d="m280 231.9375c-3.234375 0-6.152344-1.949219-7.390625-4.941406-1.238281-2.988282-.550781-6.425782 1.734375-8.714844l16-16c3.140625-3.03125 8.128906-2.988281 11.214844.097656 3.085937 3.085938 3.128906 8.074219.097656 11.214844l-16 16c-1.5 1.5-3.535156 2.34375-5.65625 2.34375zm0 0"/><path d="m400 103.9375c-2.121094 0-4.15625-.84375-5.65625-2.34375l-16-16c-3.03125-3.140625-2.988281-8.128906.097656-11.214844 3.085938-3.085937 8.074219-3.128906 11.214844-.097656l16 16c2.285156 2.289062 2.972656 5.726562 1.734375 8.714844-1.238281 2.992187-4.15625 4.941406-7.390625 4.941406zm0 0"/><path d="m160 311.9375c-2.121094 0-4.15625-.84375-5.65625-2.34375l-16-16c-3.03125-3.140625-2.988281-8.128906.097656-11.214844 3.085938-3.085937 8.074219-3.128906 11.214844-.097656l16 16c2.285156 2.289062 2.972656 5.726562 1.734375 8.714844-1.238281 2.992187-4.15625 4.941406-7.390625 4.941406zm0 0"/></g></svg>